<svg width="150" height="31" viewBox="0 0 150 31" fill="none" xmlns="http://www.w3.org/2000/svg">
<path d="M-10.336 3.2656C-9.1456 3.2656 -8.192 3.432 -7.4752 3.7648C-6.7584 4.0848 -6.2464 4.6096 -5.9392 5.3392C-5.6192 6.0688 -5.4592 7.048 -5.4592 8.2768C-5.4592 9.48 -5.6192 10.4464 -5.9392 11.176C-6.2464 11.9056 -6.7584 12.4304 -7.4752 12.7504C-8.192 13.0704 -9.1456 13.2304 -10.336 13.2304C-11.5136 13.2304 -12.4672 13.0704 -13.1968 12.7504C-13.9136 12.4304 -14.432 11.9056 -14.752 11.176C-15.072 10.4464 -15.232 9.48 -15.232 8.2768C-15.232 7.048 -15.072 6.0688 -14.752 5.3392C-14.432 4.6096 -13.9136 4.0848 -13.1968 3.7648C-12.4672 3.432 -11.5136 3.2656 -10.336 3.2656ZM-10.336 5.3392C-10.8224 5.3392 -11.2064 5.4224 -11.488 5.5888C-11.7696 5.7552 -11.968 6.0496 -12.0832 6.472C-12.1984 6.8944 -12.256 7.496 -12.256 8.2768C-12.256 9.0448 -12.1984 9.64 -12.0832 10.0624C-11.968 10.4848 -11.7696 10.7792 -11.488 10.9456C-11.2064 11.0992 -10.8224 11.176 -10.336 11.176C-9.8496 11.176 -9.4656 11.0992 -9.184 10.9456C-8.9024 10.7792 -8.704 10.4848 -8.5888 10.0624C-8.4736 9.64 -8.416 9.0448 -8.416 8.2768C-8.416 7.496 -8.4736 6.8944 -8.5888 6.472C-8.704 6.0496 -8.9024 5.7552 -9.184 5.5888C-9.4656 5.4224 -9.8496 5.3392 -10.336 5.3392ZM12.5568 7.904C14.4981 7.904 15.8954 8.61867 16.7488 10.048C17.6021 11.4773 18.0288 13.5467 18.0288 16.256C18.0288 18.3253 17.8048 19.9573 17.3568 21.152C16.9301 22.3253 16.2794 23.168 15.4048 23.68C14.5301 24.1707 13.4208 24.416 12.0768 24.416C11.0101 24.416 9.96475 24.2667 8.94075 23.968C7.93808 23.648 7.01008 23.1573 6.15675 22.496L6.41275 20.576C7.24475 20.8107 7.99142 21.0133 8.65275 21.184C9.31408 21.3547 10.0394 21.44 10.8288 21.44C11.6181 21.44 12.2368 21.312 12.6848 21.056C13.1541 20.7787 13.4954 20.2667 13.7088 19.52C13.9221 18.7733 14.0288 17.696 14.0288 16.288C14.0288 14.9013 13.9328 13.824 13.7408 13.056C13.5488 12.288 13.2288 11.7547 12.7808 11.456C12.3541 11.136 11.7888 10.976 11.0848 10.976C10.3168 10.976 9.59142 11.1467 8.90875 11.488C8.22608 11.808 7.43675 12.288 6.54075 12.928L6.09275 10.88C6.58342 10.304 7.17008 9.792 7.85275 9.344C8.55675 8.896 9.31408 8.544 10.1248 8.288C10.9354 8.032 11.7461 7.904 12.5568 7.904ZM5.93275 8.288L6.31675 11.328L6.66875 11.776V21.92L6.50875 22.304C6.57275 22.9227 6.61542 23.5413 6.63675 24.16C6.65808 24.8 6.66875 25.4507 6.66875 26.112V30.24H2.79675V8.288H5.93275ZM25.5103 8.288V18.912C25.4889 19.7013 25.6383 20.2667 25.9583 20.608C26.2996 20.9493 26.8436 21.12 27.5903 21.12C28.3369 21.12 29.0836 20.96 29.8303 20.64C30.5769 20.32 31.4836 19.84 32.5503 19.2L32.9343 21.504C31.7396 22.464 30.5876 23.1893 29.4783 23.68C28.3689 24.1707 27.2169 24.416 26.0223 24.416C23.0996 24.416 21.6383 22.976 21.6383 20.096V8.288H25.5103ZM36.0383 8.288V24H32.9663L32.5503 20.96L32.1663 20.512V8.288H36.0383ZM43.3985 8.288L43.9105 11.36L44.2625 11.808V24H40.3905V8.288H43.3985ZM51.0785 7.904L50.6945 11.488H49.5745C48.7425 11.488 47.8998 11.6267 47.0465 11.904C46.1932 12.1813 45.1265 12.5973 43.8465 13.152L43.5905 10.88C44.6998 9.94133 45.8305 9.216 46.9825 8.704C48.1345 8.17067 49.2438 7.904 50.3105 7.904H51.0785ZM60.3985 7.904C62.9372 7.904 64.7612 8.352 65.8705 9.248C66.9798 10.1227 67.5452 11.424 67.5665 13.152C67.5878 14.5813 67.2465 15.6693 66.5425 16.416C65.8598 17.1413 64.7185 17.504 63.1185 17.504H54.1585V15.104H62.0625C62.7878 15.104 63.2465 14.912 63.4385 14.528C63.6518 14.144 63.7585 13.6747 63.7585 13.12C63.7372 12.2453 63.4812 11.6373 62.9905 11.296C62.5212 10.9547 61.7105 10.784 60.5585 10.784C59.5558 10.784 58.7772 10.9227 58.2225 11.2C57.6678 11.4773 57.2732 11.9787 57.0385 12.704C56.8252 13.4293 56.7185 14.4747 56.7185 15.84C56.7185 17.2907 56.8572 18.4107 57.1345 19.2C57.4118 19.9893 57.8705 20.5333 58.5105 20.832C59.1505 21.1093 60.0038 21.248 61.0705 21.248C61.8598 21.248 62.7665 21.216 63.7905 21.152C64.8358 21.088 65.8385 21.0027 66.7985 20.896L67.1825 23.36C66.6065 23.5947 65.9452 23.7867 65.1985 23.936C64.4518 24.0853 63.6732 24.192 62.8625 24.256C62.0732 24.3413 61.3265 24.384 60.6225 24.384C58.7025 24.384 57.1558 24.1067 55.9825 23.552C54.8305 22.976 53.9878 22.08 53.4545 20.864C52.9425 19.648 52.6865 18.08 52.6865 16.16C52.6865 14.0907 52.9425 12.4587 53.4545 11.264C53.9878 10.048 54.8198 9.184 55.9505 8.672C57.1025 8.16 58.5852 7.904 60.3985 7.904ZM83.754 0.991999C84.074 0.991999 84.5327 0.991999 85.13 0.991999C85.7487 0.991999 86.442 1.00267 87.21 1.024C87.978 1.04533 88.7673 1.07733 89.578 1.12C90.41 1.14133 91.1993 1.184 91.946 1.248C92.6927 1.312 93.3433 1.38667 93.898 1.472V19.488C93.898 20.1067 94.058 20.576 94.378 20.896C94.698 21.1947 95.1673 21.344 95.786 21.344H97.098L97.546 23.808C97.3327 23.9147 97.0127 24.0107 96.586 24.096C96.1807 24.1813 95.754 24.2347 95.306 24.256C94.8793 24.2987 94.5167 24.32 94.218 24.32C92.9167 24.32 91.8927 23.9787 91.146 23.296C90.3993 22.6133 90.026 21.664 90.026 20.448V3.84H85.13C84.234 3.81867 83.6153 4 83.274 4.384C82.9327 4.768 82.762 5.46133 82.762 6.464V24H78.858V5.984C78.858 4.93867 79.018 4.04267 79.338 3.296C79.658 2.54933 80.17 1.97333 80.874 1.568C81.5993 1.16267 82.5593 0.970666 83.754 0.991999ZM87.018 8.288V10.976H76.106V8.448L78.954 8.288H87.018ZM107.826 7.904C109.084 7.904 110.14 8.07467 110.994 8.416C111.868 8.736 112.53 9.29067 112.978 10.08C113.426 10.8693 113.65 11.9573 113.65 13.344V24H110.578L110.034 20.608L109.746 20.16V13.312C109.746 12.48 109.554 11.8827 109.17 11.52C108.786 11.136 108.05 10.944 106.962 10.944C106.151 10.944 105.127 10.976 103.89 11.04C102.674 11.104 101.447 11.1893 100.21 11.296L99.8578 8.64C100.604 8.49067 101.447 8.36267 102.386 8.256C103.324 8.14933 104.274 8.064 105.234 8C106.194 7.936 107.058 7.904 107.826 7.904ZM111.986 14.336L111.954 16.736H104.754C104.114 16.7573 103.655 16.928 103.378 17.248C103.1 17.568 102.962 18.0053 102.962 18.56V19.424C102.962 20.064 103.132 20.5547 103.474 20.896C103.815 21.216 104.348 21.376 105.074 21.376C105.65 21.376 106.29 21.2587 106.994 21.024C107.698 20.7893 108.391 20.448 109.074 20C109.778 19.552 110.407 19.0187 110.962 18.4V20.416C110.748 20.736 110.439 21.12 110.034 21.568C109.628 21.9947 109.127 22.4213 108.53 22.848C107.954 23.2747 107.282 23.6267 106.514 23.904C105.767 24.1813 104.935 24.32 104.018 24.32C103.079 24.32 102.236 24.16 101.49 23.84C100.743 23.4987 100.156 23.008 99.7298 22.368C99.3031 21.7067 99.0898 20.896 99.0898 19.936V18.272C99.0898 17.0347 99.4951 16.0747 100.306 15.392C101.138 14.688 102.268 14.336 103.698 14.336H111.986ZM132.837 8.288L127.429 23.072C127.322 23.3493 127.151 23.5733 126.917 23.744C126.703 23.9147 126.437 24 126.117 24H122.725C122.426 24 122.159 23.9147 121.925 23.744C121.69 23.5733 121.519 23.3493 121.413 23.072L116.005 8.288H120.133L123.429 18.592C123.578 19.0613 123.717 19.5413 123.845 20.032C123.973 20.5013 124.09 20.96 124.197 21.408H124.613C124.762 20.9387 124.901 20.4693 125.029 20C125.178 19.5307 125.317 19.0613 125.445 18.592L128.741 8.288H132.837ZM142.18 7.904C144.718 7.904 146.542 8.352 147.652 9.248C148.761 10.1227 149.326 11.424 149.348 13.152C149.369 14.5813 149.028 15.6693 148.324 16.416C147.641 17.1413 146.5 17.504 144.9 17.504H135.94V15.104H143.844C144.569 15.104 145.028 14.912 145.22 14.528C145.433 14.144 145.54 13.6747 145.54 13.12C145.518 12.2453 145.262 11.6373 144.772 11.296C144.302 10.9547 143.492 10.784 142.34 10.784C141.337 10.784 140.558 10.9227 140.004 11.2C139.449 11.4773 139.054 11.9787 138.82 12.704C138.606 13.4293 138.5 14.4747 138.5 15.84C138.5 17.2907 138.638 18.4107 138.916 19.2C139.193 19.9893 139.652 20.5333 140.292 20.832C140.932 21.1093 141.785 21.248 142.852 21.248C143.641 21.248 144.548 21.216 145.572 21.152C146.617 21.088 147.62 21.0027 148.58 20.896L148.964 23.36C148.388 23.5947 147.726 23.7867 146.98 23.936C146.233 24.0853 145.454 24.192 144.644 24.256C143.854 24.3413 143.108 24.384 142.404 24.384C140.484 24.384 138.937 24.1067 137.764 23.552C136.612 22.976 135.769 22.08 135.236 20.864C134.724 19.648 134.468 18.08 134.468 16.16C134.468 14.0907 134.724 12.4587 135.236 11.264C135.769 10.048 136.601 9.184 137.732 8.672C138.884 8.16 140.366 7.904 142.18 7.904Z" fill="#779611"/>
</svg>
